<svg xmlns:osb="http://www.openswatchbook.org/uri/2009/osb" xmlns="http://www.w3.org/2000/svg" xmlns:xlink="http://www.w3.org/1999/xlink" width="1489.146" height="1716.373" viewBox="0 0 1396.075 1609.1"><defs><linearGradient id="b" osb:paint="solid"><stop offset="0"/></linearGradient><linearGradient id="e" osb:paint="solid"><stop offset="0" stop-color="#97ba70"/></linearGradient><linearGradient id="f" osb:paint="solid"><stop offset="0" stop-color="#d0c185"/></linearGradient><linearGradient id="d" osb:paint="solid" gradientTransform="translate(-500 -288.675)"><stop offset="0" stop-color="#b49152"/></linearGradient><linearGradient id="a" osb:paint="solid"><stop offset="0" stop-color="#953636"/></linearGradient><linearGradient xlink:href="#a" id="c" x1="-.5" y1="211.394" x2="1000.5" y2="211.394" gradientUnits="userSpaceOnUse"/></defs><path d="M1182.857 609.505l-685.364 392.8-682.857-397.142 2.507-789.943 685.364-392.8 682.857 397.142z" opacity=".956" fill="url(#b)" stroke="#5d5c5c" stroke-width="40" transform="translate(198.037 592.187)"/><path d="M500-366.028l500 288.675v577.35L500 788.672 0 499.997v-577.35l500-288.675" fill="none" stroke="url(#c)" stroke-width="50" transform="translate(198.037 592.187)"/><g transform="translate(198.037 592.187)"><circle cx="750" cy="66.985" r="65" fill="url(#d)"/><circle cy="211.322" cx="500" r="65" fill="url(#e)"/><circle cy="-77.353" cx="1000" r="65" fill="url(#f)"/><circle r="65" cy="355.66" cx="750" fill="url(#d)"/><circle cx="250" cy="355.66" r="65" fill="url(#d)"/><circle r="65" cy="66.984" cx="250" fill="url(#d)"/><circle r="65" cx="1000" cy="499.997" fill="url(#f)"/><circle cy="788.673" cx="500" r="65" fill="url(#f)"/><circle r="65" cy="499.997" fill="url(#f)"/><circle cy="-77.353" r="65" fill="url(#f)"/><circle r="65" cx="500" cy="-366.028" fill="url(#f)"/></g></svg>